<svg width="127" height="46" xmlns="http://www.w3.org/2000/svg"><g fill="none"><path d="M10.12 0c-.39 0-.774 0-1.163.002-.325.003-.647.01-.975.015-.713.01-1.424.077-2.127.203a6.701 6.701 0 00-2.017.721A6.886 6.886 0 002.12 2.297 7.204 7.204 0 00.87 4.16a8.042 8.042 0 00-.664 2.19c-.118.76-.181 1.53-.19 2.302-.01.353-.01.706-.016 1.06v26.58c.005.357.006.703.016 1.06.009.772.072 1.542.19 2.303.117.762.34 1.5.664 2.19A7.142 7.142 0 002.12 43.7a6.739 6.739 0 003.735 2.08c.704.126 1.414.194 2.127.204.328.008.65.013.975.013.388.002.773.002 1.162.002h106.768c.38 0 .769 0 1.15-.002.323 0 .655-.005.978-.013.712-.01 1.421-.077 2.123-.203a6.716 6.716 0 003.742-2.08 7.356 7.356 0 001.254-1.857 8.05 8.05 0 00.657-2.19c.118-.761.184-1.53.197-2.302.004-.358.004-.704.004-1.06.008-.418.008-.834.008-1.258V10.967c0-.421 0-.84-.008-1.256 0-.353 0-.706-.004-1.059a16.796 16.796 0 00-.197-2.302 8.066 8.066 0 00-.657-2.189c-.656-1.383-1.694-2.51-2.97-3.22a6.803 6.803 0 00-2.026-.72 12.805 12.805 0 00-2.123-.204c-.323-.006-.655-.012-.978-.015-.381-.002-.77-.002-1.15-.002H10.119z" fill="#F2F4F7"/><path d="M55.498 23.367c2.193 0 3.64 1.74 3.64 4.428 0 2.695-1.438 4.427-3.607 4.427a2.928 2.928 0 01-2.72-1.518h-.04V35h-1.775V23.458h1.717v1.443h.033a3.064 3.064 0 012.752-1.534zm9.512 0c2.194 0 3.64 1.74 3.64 4.428 0 2.695-1.438 4.427-3.607 4.427a2.928 2.928 0 01-2.72-1.518h-.04V35h-1.774V23.458h1.717v1.443h.033a3.064 3.064 0 012.751-1.534zm12.737-3.33c2.505 0 4.222 1.41 4.28 3.462h-1.791c-.107-1.187-1.085-1.903-2.514-1.903-1.43 0-2.407.725-2.407 1.78 0 .84.624 1.336 2.152 1.714l1.306.322c2.432.577 3.443 1.558 3.443 3.298 0 2.225-1.767 3.62-4.576 3.62-2.63 0-4.404-1.362-4.519-3.514h1.816c.132 1.18 1.274 1.955 2.834 1.955 1.495 0 2.571-.775 2.571-1.839 0-.923-.649-1.476-2.185-1.855l-1.536-.37c-2.177-.529-3.188-1.55-3.188-3.208 0-2.052 1.783-3.462 4.314-3.462zm14.992 3.315c2.506 0 4.1 1.714 4.1 4.443 0 2.736-1.585 4.443-4.1 4.443-2.513 0-4.099-1.707-4.099-4.443 0-2.729 1.602-4.443 4.1-4.443zm14.366 0c2.391 0 3.895 1.648 3.895 4.277v.61h-6.104v.108a2.264 2.264 0 00.61 1.755c.445.47 1.07.725 1.715.701a1.956 1.956 0 001.996-1.22h1.684c-.238 1.575-1.766 2.655-3.721 2.655-2.515 0-4.075-1.69-4.075-4.402 0-2.72 1.569-4.484 4-4.484zm-21.06-1.946v2.052h1.643v1.41h-1.643v4.781c0 .743.329 1.089 1.051 1.089a5.44 5.44 0 00.584-.041v1.401a4.79 4.79 0 01-.985.082c-1.75 0-2.433-.659-2.433-2.341v-4.971h-1.256v-1.41h1.256v-2.052h1.783zm-40.43-1.17l4.28 11.895h-1.947l-1.085-3.215h-4.518L41.26 32.13h-1.914l4.28-11.896h1.988zm56.499 3.131c.204 0 .408.022.608.067v1.665a2.472 2.472 0 00-.797-.108 1.785 1.785 0 00-1.382.571 1.798 1.798 0 00-.467 1.425v5.144h-1.774v-8.673h1.692v1.476h.041a2.062 2.062 0 012.079-1.567zm-73.83-7.064l.281.017a4.831 4.831 0 013.81 2.067 4.744 4.744 0 00-2.25 3.977 4.581 4.581 0 002.788 4.215 10.516 10.516 0 01-1.45 2.962c-.854 1.282-1.749 2.534-3.17 2.557-1.38.032-1.844-.816-3.428-.816-1.598 0-2.093.793-3.417.848-1.353.05-2.387-1.368-3.272-2.638-1.768-2.592-3.146-7.306-1.3-10.514a5.072 5.072 0 014.27-2.613c1.355-.028 2.613.918 3.445.918.817 0 2.371-1.132 3.974-.963zm64.455 8.515c-1.437 0-2.291 1.114-2.291 2.977 0 1.88.854 2.976 2.291 2.976 1.438 0 2.293-1.097 2.293-2.976 0-1.872-.855-2.977-2.293-2.977zm-37.71.067c-1.355 0-2.266 1.178-2.266 2.91 0 1.747.911 2.918 2.267 2.918 1.38 0 2.284-1.146 2.284-2.918 0-1.756-.904-2.91-2.284-2.91zm9.514 0c-1.356 0-2.268 1.178-2.268 2.91 0 1.747.912 2.918 2.268 2.918 1.38 0 2.284-1.146 2.284-2.918 0-1.756-.905-2.91-2.284-2.91zm-19.914-2.671h-.05l-1.766 5.218h3.582l-1.766-5.218zm62.476 2.58a2.184 2.184 0 00-1.557.64 2.2 2.2 0 00-.644 1.561h4.321a2.09 2.09 0 00-.58-1.565 2.075 2.075 0 00-1.54-.636zm-2.483-12.193c1.196 0 1.917.82 1.917 2.174v.297h-3.035v.048a1.142 1.142 0 001.145 1.236c.415.05.819-.157 1.022-.523h.817a1.745 1.745 0 01-1.863 1.248 1.95 1.95 0 01-1.506-.652 1.964 1.964 0 01-.48-1.575 1.994 1.994 0 01.48-1.58 1.98 1.98 0 011.503-.673zm-19.406.307a2.046 2.046 0 01.954 1.93 2.046 2.046 0 01-.953 1.935 2.03 2.03 0 01-2.15 0 2.046 2.046 0 01-.952-1.934 2.046 2.046 0 01.954-1.931 2.03 2.03 0 012.147 0zm-35.845 0a2.046 2.046 0 01.953 1.93 2.046 2.046 0 01-.952 1.935 2.03 2.03 0 01-2.15 0 2.046 2.046 0 01-.952-1.934 2.046 2.046 0 01.953-1.931 2.03 2.03 0 012.148 0zm18.65 0a2.046 2.046 0 01.954 1.93 2.046 2.046 0 01-.952 1.935c-.658.41-1.492.41-2.15 0a2.046 2.046 0 01-.952-1.934 2.046 2.046 0 01.953-1.931 2.03 2.03 0 012.148 0zm3.77-.307c1.077 0 1.685.538 1.685 1.45v2.946h-.816v-.606h-.068a1.44 1.44 0 01-1.29.677 1.296 1.296 0 01-1.003-.326 1.305 1.305 0 01-.43-.965c0-.776.576-1.224 1.598-1.287l1.165-.068v-.372c0-.455-.3-.713-.88-.713-.474 0-.802.175-.896.48h-.822c.087-.741.782-1.216 1.757-1.216zM78.605 11v5.997h-.812v-.681h-.068a1.49 1.49 0 01-1.35.752c-1.093 0-1.784-.863-1.784-2.23 0-1.362.698-2.226 1.785-2.226a1.416 1.416 0 011.318.757h.063V11h.848zm17.147.61v1.094h.932v.717h-.932v2.218c0 .451.186.65.608.65.108-.001.216-.008.324-.02v.709a2.774 2.774 0 01-.462.043c-.943 0-1.32-.333-1.32-1.164V13.42h-.681v-.718h.682V11.61h.85zm2.931-.61v2.377h.067a1.322 1.322 0 011.311-.773 1.422 1.422 0 011.48 1.608v2.785h-.849v-2.575c0-.689-.32-1.037-.919-1.037a1.002 1.002 0 00-.795.294 1.01 1.01 0 00-.287.8v2.518h-.849V11h.841zm-38.63 1.6a1.4 1.4 0 011.489 1.604v2.793h-.85V14.42c0-.693-.3-1.038-.927-1.038a.984.984 0 00-.763.31.992.992 0 00-.263.783v2.523h-.848v-4.313h.816v.685h.064c.22-.504.735-.813 1.282-.768zm-8.256.084l.77 3.291h.064l.884-3.291h.813l.884 3.291h.067l.767-3.291h.848l-1.18 4.313h-.88l-.889-3.177h-.067l-.885 3.177h-.871l-1.185-4.313h.86zm37.674-.083c.423-.032.839.13 1.128.443.29.312.422.74.36 1.16v2.793h-.849V14.42c0-.693-.3-1.038-.927-1.038a.984.984 0 00-.764.31.992.992 0 00-.263.783v2.523h-.848v-4.313h.817v.685h.063c.22-.504.736-.813 1.283-.768zm-44.87-.536c.519.55.765 1.305.67 2.057 0 1.826-.984 2.875-2.68 2.875h-2.058v-5.715h2.058a2.515 2.515 0 012.01.783zM63.74 11v5.997h-.848V11h.848zm8.89 4.048l-1.05.068c-.591.04-.86.241-.86.622 0 .388.336.614.798.614a1.011 1.011 0 001.113-.943v-.36zm11.513-1.691c-.737 0-1.152.547-1.152 1.482 0 .942.415 1.485 1.152 1.485.735 0 1.153-.547 1.153-1.485 0-.935-.418-1.482-1.153-1.482zm-17.195 0c-.737 0-1.152.547-1.152 1.482 0 .942.415 1.485 1.152 1.485.735 0 1.153-.547 1.153-1.485 0-.935-.418-1.482-1.153-1.482zm-18.65 0c-.738 0-1.153.547-1.153 1.482 0 .942.415 1.485 1.153 1.485.734 0 1.153-.547 1.153-1.485 0-.935-.419-1.482-1.153-1.482zm28.317.02c-.714 0-1.148.554-1.148 1.462 0 .915.43 1.465 1.148 1.465.715 0 1.157-.558 1.157-1.462 0-.899-.447-1.465-1.157-1.465zm-34.124-1.288h-1.074v4.1h1.074a1.788 1.788 0 001.426-.58c.365-.398.53-.94.452-1.476a1.806 1.806 0 00-.459-1.466 1.792 1.792 0 00-1.42-.578zm-13.91-.818a4.678 4.678 0 01-1.064 3.344 3.908 3.908 0 01-3.09 1.466 4.45 4.45 0 011.092-3.22 4.727 4.727 0 013.062-1.59zm76.035 2.054a1.097 1.097 0 00-1.113 1.118h2.171a1.043 1.043 0 00-1.058-1.118z" fill="#B1B3B6"/></g></svg>