<svg width="138" height="46" xmlns="http://www.w3.org/2000/svg"><g fill="none"><g fill="#000"><path d="M10.965 0c-.422 0-.838 0-1.26.002-.351.003-.7.01-1.056.015-.772.009-1.542.077-2.304.203a7.665 7.665 0 00-2.186.721A7.403 7.403 0 00.224 6.35C.095 7.11.027 7.88.017 8.652c-.01.353-.011.706-.017 1.059v26.581c.006.357.007.703.017 1.06.01.772.078 1.542.207 2.303.126.762.368 1.5.718 2.19A7.139 7.139 0 002.297 43.7a7.216 7.216 0 001.862 1.356c.688.35 1.425.594 2.186.725a15.47 15.47 0 002.304.203c.356.008.705.013 1.057.013.42.002.837.002 1.259.002h115.69c.413 0 .833 0 1.247-.002.35 0 .71-.005 1.06-.013.77-.01 1.54-.077 2.3-.203a7.825 7.825 0 002.194-.725 7.219 7.219 0 001.86-1.356 7.354 7.354 0 001.359-1.856c.347-.69.587-1.428.712-2.19.128-.761.2-1.53.213-2.302.005-.358.005-.704.005-1.06.009-.418.009-.834.009-1.258V10.967c0-.422 0-.84-.01-1.256 0-.353 0-.706-.004-1.059a15.533 15.533 0 00-.213-2.302 7.61 7.61 0 00-.712-2.19 7.436 7.436 0 00-3.219-3.219 7.783 7.783 0 00-2.194-.721 15 15 0 00-2.3-.203c-.35-.006-.71-.013-1.06-.015C127.488 0 127.068 0 126.655 0H10.965z"/><path d="M9.712 44.994c-.35 0-.693-.005-1.04-.013a14.59 14.59 0 01-2.15-.187 6.766 6.766 0 01-1.905-.63 6.217 6.217 0 01-1.607-1.17 6.119 6.119 0 01-1.173-1.605 6.58 6.58 0 01-.625-1.906 14.276 14.276 0 01-.191-2.156c-.007-.243-.017-1.05-.017-1.05V9.71s.01-.795.017-1.029c.009-.721.072-1.44.19-2.153.11-.665.32-1.31.625-1.911a6.4 6.4 0 012.78-2.783 6.697 6.697 0 011.902-.626c.713-.117 1.434-.18 2.156-.189l1.038-.014h118.184l1.05.015c.716.008 1.43.07 2.137.187a6.83 6.83 0 011.922.63 6.433 6.433 0 012.777 2.783c.3.597.507 1.237.615 1.896.12.718.187 1.443.2 2.17.004.326.004.676.004 1.024.009.431.009.842.009 1.256v24.068c0 .417 0 .825-.01 1.236 0 .374 0 .717-.004 1.07a14.64 14.64 0 01-.196 2.13 6.6 6.6 0 01-.621 1.921 6.302 6.302 0 01-1.168 1.594 6.225 6.225 0 01-1.61 1.176 6.74 6.74 0 01-1.918.632c-.71.116-1.43.179-2.15.187-.336.008-.689.013-1.031.013l-1.247.002-116.943-.002z"/></g><path d="M28.484 23.346a5.691 5.691 0 012.71-4.775 5.826 5.826 0 00-4.59-2.481c-1.93-.203-3.803 1.155-4.787 1.155-1.003 0-2.518-1.135-4.15-1.102a6.113 6.113 0 00-5.144 3.137c-2.224 3.851-.565 9.51 1.566 12.623 1.066 1.524 2.312 3.226 3.942 3.166 1.595-.066 2.19-1.017 4.116-1.017 1.907 0 2.466 1.017 4.13.979 1.711-.028 2.79-1.531 3.818-3.07a12.606 12.606 0 001.746-3.556 5.5 5.5 0 01-3.357-5.06zm-3.141-9.303a5.603 5.603 0 001.282-4.015 5.701 5.701 0 00-3.69 1.909 5.332 5.332 0 00-1.314 3.865 4.714 4.714 0 003.722-1.76zM48.648 31.21h-5.444l-1.307 3.86h-2.306l5.156-14.28h2.396l5.156 14.28h-2.345l-1.306-3.86zm-4.88-1.78h4.315l-2.127-6.265h-.06l-2.128 6.264zm19.666.435c0 3.236-1.732 5.314-4.345 5.314a3.53 3.53 0 01-3.276-1.821h-.05v5.157h-2.137V24.659h2.069v1.731h.039a3.693 3.693 0 013.315-1.84c2.643 0 4.385 2.089 4.385 5.315zm-2.197 0c0-2.108-1.09-3.494-2.752-3.494-1.632 0-2.73 1.415-2.73 3.494 0 2.098 1.098 3.503 2.73 3.503 1.663 0 2.752-1.376 2.752-3.503zm13.656 0c0 3.236-1.732 5.314-4.345 5.314a3.53 3.53 0 01-3.276-1.821h-.05v5.157h-2.136V24.659h2.068v1.731h.04a3.693 3.693 0 013.315-1.84c2.642 0 4.384 2.089 4.384 5.315zm-2.196 0c0-2.108-1.09-3.494-2.752-3.494-1.633 0-2.731 1.415-2.731 3.494 0 2.098 1.098 3.503 2.731 3.503 1.662 0 2.752-1.376 2.752-3.503zm9.77 1.227c.158 1.416 1.534 2.346 3.414 2.346 1.801 0 3.097-.93 3.097-2.207 0-1.109-.781-1.772-2.632-2.227l-1.85-.446c-2.623-.633-3.84-1.86-3.84-3.85 0-2.464 2.147-4.156 5.196-4.156 3.018 0 5.086 1.692 5.156 4.156H88.85c-.129-1.425-1.307-2.285-3.028-2.285-1.722 0-2.9.87-2.9 2.137 0 1.01.752 1.604 2.593 2.058l1.573.387c2.93.693 4.148 1.87 4.148 3.958 0 2.672-2.128 4.345-5.513 4.345-3.167 0-5.306-1.634-5.444-4.217h2.188zm13.381-8.897v2.464h1.98v1.692h-1.98v5.74c0 .892.397 1.307 1.267 1.307.235-.004.47-.02.703-.05v1.683a5.869 5.869 0 01-1.187.099c-2.108 0-2.93-.792-2.93-2.811v-5.968h-1.514V24.66h1.514v-2.464h2.147zm3.127 7.67c0-3.276 1.93-5.334 4.938-5.334 3.019 0 4.939 2.058 4.939 5.334 0 3.285-1.91 5.335-4.94 5.335-3.027 0-4.937-2.05-4.937-5.335zm7.7 0c0-2.247-1.03-3.573-2.762-3.573s-2.76 1.336-2.76 3.573c0 2.256 1.028 3.573 2.76 3.573 1.732 0 2.761-1.317 2.761-3.573zm3.939-5.206h2.038v1.772h.05a2.483 2.483 0 012.504-1.881c.246-.001.492.026.732.08v1.999a2.988 2.988 0 00-.96-.13 2.154 2.154 0 00-2.227 2.396v6.175h-2.137V24.66zm15.178 7.353c-.288 1.89-2.128 3.188-4.483 3.188-3.03 0-4.91-2.03-4.91-5.285 0-3.266 1.891-5.384 4.82-5.384 2.88 0 4.692 1.979 4.692 5.135v.733h-7.354v.129a2.712 2.712 0 002.801 2.949 2.356 2.356 0 002.405-1.465h2.029zm-7.225-3.107h5.206a2.504 2.504 0 00-2.554-2.643 2.636 2.636 0 00-2.652 2.643zM43.5 10.04a3.036 3.036 0 013.229 3.41c0 2.192-1.185 3.453-3.229 3.453h-2.478V10.04H43.5zm-1.413 5.892h1.294a2.157 2.157 0 002.263-2.468 2.163 2.163 0 00-2.263-2.454h-1.294v4.922zm5.846-1.621a2.453 2.453 0 114.884 0 2.454 2.454 0 11-4.884 0zm3.833 0c0-1.122-.505-1.779-1.39-1.779-.888 0-1.388.657-1.388 1.779 0 1.131.5 1.783 1.389 1.783.885 0 1.389-.656 1.389-1.783zm7.544 2.591h-1.06l-1.071-3.813h-.081l-1.066 3.813h-1.05l-1.427-5.178h1.036l.928 3.951h.076l1.065-3.951h.98l1.065 3.951h.08l.924-3.951h1.022zm2.622-5.178h.983v.823h.077a1.55 1.55 0 011.545-.923 1.684 1.684 0 011.792 1.926v3.352h-1.022v-3.095c0-.832-.361-1.246-1.117-1.246a1.188 1.188 0 00-1.236 1.312v3.03h-1.022v-5.179zm6.026-2.021h1.022v7.2h-1.022zm2.442 4.608a2.453 2.453 0 114.885 0 2.454 2.454 0 11-4.885 0zm3.833 0c0-1.122-.504-1.779-1.389-1.779-.888 0-1.388.657-1.388 1.779 0 1.131.5 1.783 1.388 1.783.885 0 1.39-.656 1.39-1.783zm2.128 1.127c0-.932.694-1.47 1.926-1.546l1.403-.08v-.448c0-.547-.362-.855-1.06-.855-.57 0-.966.209-1.08.575h-.99c.105-.89.942-1.46 2.117-1.46 1.298 0 2.03.646 2.03 1.74v3.538h-.984v-.727h-.08a1.742 1.742 0 01-1.556.813 1.564 1.564 0 01-1.726-1.55zm3.329-.443v-.432l-1.265.08c-.713.048-1.036.29-1.036.747 0 .466.404.738.96.738a1.22 1.22 0 001.34-1.133zm2.36-.684c0-1.636.842-2.673 2.15-2.673.66-.03 1.28.324 1.588.909h.076V9.703h1.022v7.2h-.98v-.819h-.08c-.332.58-.958.928-1.626.904-1.317 0-2.15-1.037-2.15-2.677zm1.056 0c0 1.098.518 1.76 1.384 1.76.861 0 1.393-.671 1.393-1.756 0-1.079-.538-1.759-1.393-1.759-.86 0-1.384.666-1.384 1.755zm8.009 0a2.453 2.453 0 114.884 0 2.454 2.454 0 11-4.884 0zm3.832 0c0-1.122-.504-1.779-1.389-1.779-.888 0-1.388.657-1.388 1.779 0 1.131.5 1.783 1.388 1.783.885 0 1.39-.656 1.39-1.783zm2.423-2.587h.984v.823h.076a1.55 1.55 0 011.545-.923 1.684 1.684 0 011.793 1.926v3.352h-1.022v-3.095c0-.832-.362-1.246-1.118-1.246a1.188 1.188 0 00-1.236 1.312v3.03H97.37v-5.179zm10.172-1.289v1.313h1.122v.86h-1.122v2.663c0 .543.224.78.733.78.13 0 .26-.008.39-.023v.85c-.184.034-.37.051-.557.053-1.136 0-1.589-.4-1.589-1.398v-2.925h-.822v-.86h.822v-1.313h1.023zm2.518-.732h1.013v2.853h.081c.278-.61.91-.982 1.58-.927a1.706 1.706 0 011.782 1.93v3.343h-1.022v-3.09c0-.828-.386-1.247-1.108-1.247a1.21 1.21 0 00-1.304 1.313v3.024h-1.022v-7.2zm10.415 5.801a2.102 2.102 0 01-2.243 1.498 2.352 2.352 0 01-2.392-2.672 2.388 2.388 0 012.387-2.706c1.441 0 2.31.984 2.31 2.61v.357h-3.656v.057a1.369 1.369 0 001.379 1.484c.5.06.986-.188 1.232-.628h.983zm-3.594-1.669h2.615a1.25 1.25 0 00-1.275-1.341 1.324 1.324 0 00-1.34 1.341z" fill="#FFF"/></g></svg>