<svg width="127" height="46" xmlns="http://www.w3.org/2000/svg"><defs><linearGradient x1="61.045%" y1="4.946%" x2="26.513%" y2="71.879%" id="a"><stop stop-color="#00A0FF" offset="0%"/><stop stop-color="#00A1FF" offset="1%"/><stop stop-color="#00BEFF" offset="26%"/><stop stop-color="#00D2FF" offset="51%"/><stop stop-color="#00DFFF" offset="76%"/><stop stop-color="#00E3FF" offset="100%"/></linearGradient><linearGradient x1="107.685%" y1="50%" x2="-130.64%" y2="50%" id="b"><stop stop-color="#FFE000" offset="0%"/><stop stop-color="#FFBD00" offset="41%"/><stop stop-color="orange" offset="78%"/><stop stop-color="#FF9C00" offset="100%"/></linearGradient><linearGradient x1="86.271%" y1="30.873%" x2="-50.18%" y2="136.109%" id="c"><stop stop-color="#FF3A44" offset="0%"/><stop stop-color="#C31162" offset="100%"/></linearGradient><linearGradient x1="-18.825%" y1="-11.91%" x2="42.086%" y2="35.079%" id="d"><stop stop-color="#32A071" offset="0%"/><stop stop-color="#2DA771" offset="7%"/><stop stop-color="#15CF74" offset="48%"/><stop stop-color="#06E775" offset="80%"/><stop stop-color="#00F076" offset="100%"/></linearGradient></defs><g fill="none"><path d="M10.12 0c-.39 0-.774 0-1.163.002-.325.003-.647.01-.975.015-.713.01-1.424.077-2.127.203a6.701 6.701 0 00-2.017.721A6.886 6.886 0 002.12 2.297 7.204 7.204 0 00.87 4.16a8.042 8.042 0 00-.664 2.19c-.118.76-.181 1.53-.19 2.302-.01.353-.01.706-.016 1.06v26.58c.005.357.006.703.016 1.06.009.772.072 1.542.19 2.303.117.762.34 1.5.664 2.19A7.142 7.142 0 002.12 43.7a6.739 6.739 0 003.735 2.08c.704.126 1.414.194 2.127.204.328.008.65.013.975.013.388.002.773.002 1.162.002h106.768c.38 0 .769 0 1.15-.002.323 0 .655-.005.978-.013.712-.01 1.421-.077 2.123-.203a6.716 6.716 0 003.742-2.08 7.356 7.356 0 001.254-1.857 8.05 8.05 0 00.657-2.19c.118-.761.184-1.53.197-2.302.004-.358.004-.704.004-1.06.008-.418.008-.834.008-1.258V10.967c0-.421 0-.84-.008-1.256 0-.353 0-.706-.004-1.059a16.796 16.796 0 00-.197-2.302 8.066 8.066 0 00-.657-2.189c-.656-1.383-1.694-2.51-2.97-3.22a6.803 6.803 0 00-2.026-.72 12.805 12.805 0 00-2.123-.204c-.323-.006-.655-.012-.978-.015-.381-.002-.77-.002-1.15-.002H10.119z" fill="#F2F4F7"/><path d="M42.65 13.915a2.346 2.346 0 01-.647 1.725 2.501 2.501 0 01-1.898.76 2.588 2.588 0 01-1.906-.777 2.751 2.751 0 010-3.847 2.725 2.725 0 012.967-.56c.311.127.589.325.811.577l-.457.458a1.725 1.725 0 00-1.415-.621 2.07 2.07 0 101.45 3.562c.263-.29.416-.662.43-1.053h-1.88v-.62h2.51c.02.13.031.263.035.396h0zm3.95-2.156h-2.329v1.639h2.122v.62h-2.122v1.64H46.6v.638h-3.002V11.12H46.6zm2.829 4.537h-.664v-4.537h-1.45v-.638h3.598v.638h-1.484zm4.019 0V11.12h.664v5.175zm3.614 0h-.664v-4.537h-1.449v-.638h3.553v.638h-1.44zm8.177-.673a2.682 2.682 0 01-3.795 0 2.794 2.794 0 010-3.83 2.527 2.527 0 011.897-.784c.714-.012 1.4.272 1.898.784.5.51.774 1.2.759 1.915a2.588 2.588 0 01-.76 1.915h0zm-3.304-.431a1.975 1.975 0 002.812 0 2.19 2.19 0 000-2.967 1.975 1.975 0 00-2.812 0 2.19 2.19 0 000 2.967h0zm5.003 1.104V11.12h.802l2.518 4.028h0V11.12h.664v5.175h-.69l-2.63-4.218h0v4.218z" stroke="#B1B3B6" stroke-width=".5" fill="#B1B3B6"/><path d="M60.52 23.843a3.674 3.674 0 103.684 3.665 3.614 3.614 0 00-3.683-3.665zm0 5.89a2.225 2.225 0 112.07-2.225 2.122 2.122 0 01-2.07 2.225zm-8.038-5.89a3.674 3.674 0 103.683 3.665 3.614 3.614 0 00-3.683-3.665zm0 5.89a2.225 2.225 0 112.07-2.225 2.122 2.122 0 01-2.07 2.225zm-9.556-4.76v1.552h3.726a3.252 3.252 0 01-.863 1.958 3.812 3.812 0 01-2.88 1.138 4.14 4.14 0 010-8.28 4.002 4.002 0 012.828 1.113l1.096-1.095a5.434 5.434 0 00-3.907-1.57 5.701 5.701 0 100 11.393 5.235 5.235 0 003.976-1.595 5.175 5.175 0 001.345-3.649 5.408 5.408 0 00-.077-.966h-5.244zm39.08 1.207a3.45 3.45 0 00-3.14-2.337 3.45 3.45 0 00-3.45 3.665 3.648 3.648 0 006.693 2.044l-1.25-.862a2.079 2.079 0 01-1.803 1.009 1.854 1.854 0 01-1.777-1.113l4.908-2.027-.181-.38zm-5.003 1.225a2.018 2.018 0 011.924-2.148 1.414 1.414 0 011.354.785l-3.278 1.363zm-3.985 3.553h1.613V20.177h-1.613v10.781zm-2.639-6.296h-.06a2.536 2.536 0 00-1.932-.863 3.674 3.674 0 000 7.34 2.484 2.484 0 001.932-.862h.06v.526c0 1.406-.75 2.156-1.958 2.156a2.036 2.036 0 01-1.854-1.302l-1.397.578a3.45 3.45 0 003.251 2.173c1.89 0 3.45-1.112 3.45-3.82v-6.53H70.38v.604zm-1.854 5.071a2.225 2.225 0 010-4.441 2.061 2.061 0 011.966 2.216 2.053 2.053 0 01-1.966 2.225zm21.036-9.556h-3.864v10.781h1.613V26.87h2.251a3.355 3.355 0 100-6.693zm0 5.175H87.31v-3.674h2.286a1.846 1.846 0 110 3.691l-.035-.017zm9.953-1.544a3.01 3.01 0 00-2.872 1.647l1.423.596c.294-.53.872-.837 1.475-.785a1.552 1.552 0 011.725 1.388v.104a3.605 3.605 0 00-1.682-.414c-1.535 0-3.105.862-3.105 2.432a2.493 2.493 0 002.683 2.372 2.286 2.286 0 002.052-1.052h.052v.862h1.553V26.81c0-1.89-1.432-2.985-3.27-2.985l-.034-.017zm-.198 5.908c-.526 0-1.26-.267-1.26-.914 0-.863.915-1.156 1.726-1.156a2.863 2.863 0 011.466.362 1.95 1.95 0 01-1.898 1.725l-.034-.017zm9.16-5.658l-1.846 4.675h-.052l-1.915-4.675h-1.725l2.873 6.538-1.64 3.631h1.683l4.416-10.169h-1.794zm-14.49 6.9h1.604V20.177h-1.604v10.781z" fill="#B1B3B6"/><path d="M.464.281a1.38 1.38 0 00-.324.966V16.51c-.023.352.093.7.324.966l.049.055 8.549-8.549v-.207L.512.233.465.281z" fill="url(#a)" transform="translate(16 13.333)"/><path d="M11.89 11.832l-2.828-2.85v-.207l2.829-2.85.062.042 3.388 1.918c.966.545.966 1.442 0 1.994l-3.374 1.918-.076.035z" fill="url(#b)" transform="translate(16 13.333)"/><path d="M11.973 11.79L9.062 8.88.464 17.476a1.118 1.118 0 001.429.048l10.08-5.734" fill="url(#c)" transform="translate(16 13.333)"/><path d="M11.973 5.967L1.893.24A1.11 1.11 0 00.464.28l8.598 8.6 2.911-2.912z" fill="url(#d)" transform="translate(16 13.333)"/><path d="M27.89 25.062l-9.997 5.692a1.145 1.145 0 01-1.38 0l-.049.048.049.056c.408.308.971.308 1.38 0l10.08-5.734-.082-.062z" fill="#000" opacity=".2"/><path d="M16.464 30.713a1.38 1.38 0 01-.303-.973v.103c-.024.352.093.7.324.966l.048-.048-.069-.048zm14.876-7.604l-3.45 1.953.063.062 3.388-1.919c.407-.172.688-.553.731-.993a1.283 1.283 0 01-.731.897z" fill="#000" opacity=".12"/><path d="M17.893 13.67l13.448 7.645c.372.166.644.499.731.897a1.208 1.208 0 00-.731-.994l-13.448-7.645c-.96-.552-1.753-.097-1.753 1.007v.104c.02-1.104.793-1.56 1.753-1.014z" fill="#FFF" opacity=".25"/></g></svg>