<svg width="156" height="46" xmlns="http://www.w3.org/2000/svg"><defs><linearGradient x1="61.045%" y1="4.946%" x2="26.513%" y2="71.879%" id="a"><stop stop-color="#00A0FF" offset="0%"/><stop stop-color="#00A1FF" offset="1%"/><stop stop-color="#00BEFF" offset="26%"/><stop stop-color="#00D2FF" offset="51%"/><stop stop-color="#00DFFF" offset="76%"/><stop stop-color="#00E3FF" offset="100%"/></linearGradient><linearGradient x1="107.685%" y1="50%" x2="-130.64%" y2="50%" id="b"><stop stop-color="#FFE000" offset="0%"/><stop stop-color="#FFBD00" offset="41%"/><stop stop-color="orange" offset="78%"/><stop stop-color="#FF9C00" offset="100%"/></linearGradient><linearGradient x1="86.271%" y1="30.873%" x2="-50.18%" y2="136.109%" id="c"><stop stop-color="#FF3A44" offset="0%"/><stop stop-color="#C31162" offset="100%"/></linearGradient><linearGradient x1="-18.825%" y1="-11.91%" x2="42.086%" y2="35.079%" id="d"><stop stop-color="#32A071" offset="0%"/><stop stop-color="#2DA771" offset="7%"/><stop stop-color="#15CF74" offset="48%"/><stop stop-color="#06E775" offset="80%"/><stop stop-color="#00F076" offset="100%"/></linearGradient></defs><g fill="none"><rect fill="#000" width="155.25" height="46" rx="5.75"/><path d="M149.5.92a4.83 4.83 0 014.83 4.83v34.5a4.83 4.83 0 01-4.83 4.83H5.75a4.83 4.83 0 01-4.83-4.83V5.75A4.83 4.83 0 015.75.92H149.5m0-.92H5.75A5.75 5.75 0 000 5.75v34.5A5.75 5.75 0 005.75 46H149.5a5.75 5.75 0 005.75-5.75V5.75A5.75 5.75 0 00149.5 0z" fill="#000"/><path d="M54.533 11.776a3.128 3.128 0 01-.863 2.3 3.335 3.335 0 01-2.53 1.012 3.45 3.45 0 01-2.541-1.035 3.668 3.668 0 010-5.129 3.634 3.634 0 013.956-.747c.415.17.785.434 1.081.77l-.61.61a2.3 2.3 0 00-1.886-.829 2.76 2.76 0 101.932 4.75c.352-.385.555-.882.575-1.403h-2.506v-.828h3.346c.026.175.042.352.046.529h0zM59.8 8.901h-3.105v2.185h2.829v.828h-2.829v2.185H59.8v.851h-4.002v-6.9H59.8zm3.772 6.049h-.886V8.901h-1.931V8.05h4.795v.851h-1.978zm5.359 0v-6.9h.886v6.9zm4.819 0h-.886V8.901h-1.932V8.05h4.738v.851h-1.92zm10.901-.897a3.576 3.576 0 01-5.06 0 3.726 3.726 0 010-5.106 3.37 3.37 0 012.53-1.046 3.45 3.45 0 012.53 1.046 3.53 3.53 0 011.013 2.553 3.45 3.45 0 01-1.013 2.553h0zm-4.404-.575a2.634 2.634 0 003.749 0 2.921 2.921 0 000-3.956 2.634 2.634 0 00-3.749 0 2.921 2.921 0 000 3.956h0zm6.67 1.472v-6.9h1.07l3.358 5.37h0V8.05h.885v6.9h-.92l-3.508-5.623h0v5.623z" stroke="#FFF" stroke-width=".5" fill="#FFF"/><path d="M78.361 25.012a4.899 4.899 0 104.91 4.888 4.819 4.819 0 00-4.91-4.887zm0 7.855a2.967 2.967 0 112.76-2.967 2.829 2.829 0 01-2.76 2.967zm-10.718-7.854a4.899 4.899 0 104.91 4.887 4.819 4.819 0 00-4.91-4.887zm0 7.854a2.967 2.967 0 112.76-2.967 2.829 2.829 0 01-2.76 2.967zm-12.742-6.348v2.07h4.968a4.336 4.336 0 01-1.15 2.61 5.083 5.083 0 01-3.841 1.518 5.52 5.52 0 010-11.04 5.336 5.336 0 013.772 1.484l1.46-1.46a7.245 7.245 0 00-5.209-2.093 7.601 7.601 0 100 15.191 6.98 6.98 0 005.301-2.127 6.9 6.9 0 001.794-4.865 7.21 7.21 0 00-.103-1.288h-6.992zm52.106 1.61a4.6 4.6 0 00-4.186-3.117 4.6 4.6 0 00-4.6 4.888 4.865 4.865 0 008.924 2.726l-1.667-1.15a2.772 2.772 0 01-2.403 1.345 2.472 2.472 0 01-2.37-1.483l6.544-2.703-.242-.506zm-6.67 1.633a2.691 2.691 0 012.565-2.864 1.886 1.886 0 011.805 1.047l-4.37 1.817zM95.025 34.5h2.151V20.125h-2.15V34.5zm-3.519-8.395h-.08a3.381 3.381 0 00-2.576-1.15 4.899 4.899 0 000 9.787 3.312 3.312 0 002.576-1.15h.08v.701c0 1.874-1 2.875-2.61 2.875a2.714 2.714 0 01-2.472-1.736l-1.864.77a4.6 4.6 0 004.336 2.898c2.519 0 4.6-1.483 4.6-5.095V25.3h-1.99v.805zm-2.472 6.762a2.967 2.967 0 010-5.922 2.748 2.748 0 012.622 2.955 2.737 2.737 0 01-2.622 2.967zm28.049-12.742h-5.152V34.5h2.15v-5.451h3.002a4.474 4.474 0 100-8.924zm0 6.9h-3.002v-4.899h3.047a2.461 2.461 0 010 4.922l-.045-.023zm13.27-2.058a4.014 4.014 0 00-3.829 2.196l1.898.793a2.047 2.047 0 011.966-1.046 2.07 2.07 0 012.3 1.852v.137a4.807 4.807 0 00-2.243-.552c-2.046 0-4.14 1.15-4.14 3.243a3.323 3.323 0 003.577 3.163 3.048 3.048 0 002.737-1.403h.069v1.15h2.07v-5.532c0-2.518-1.909-3.979-4.358-3.979l-.047-.023zm-.264 7.877c-.701 0-1.679-.357-1.679-1.219 0-1.15 1.219-1.541 2.3-1.541a3.818 3.818 0 011.955.483 2.599 2.599 0 01-2.53 2.3l-.046-.023zm12.213-7.544l-2.461 6.233h-.069l-2.553-6.233h-2.3l3.83 8.717-2.185 4.841h2.242l5.888-13.558h-2.392zm-19.32 9.2h2.139V20.125h-2.139V34.5z" fill="#FFF"/><path d="M12.006 8.671a2.3 2.3 0 00-.54 1.61v25.438c-.04.587.155 1.166.54 1.61l.08.092 14.249-14.248v-.345L12.086 8.59l-.08.08z" fill="url(#a)"/><path d="M31.05 27.922l-4.715-4.75v-.345l4.715-4.749.104.069 5.646 3.197c1.61.909 1.61 2.403 0 3.323l-5.623 3.197-.127.058z" fill="url(#b)"/><path d="M31.188 27.853L26.335 23 12.006 37.329c.67.597 1.671.63 2.38.08l16.802-9.556" fill="url(#c)"/><path d="M31.188 18.147L14.387 8.602a1.852 1.852 0 00-2.381.069L26.335 23l4.853-4.853z" fill="url(#d)"/><path d="M31.05 27.75l-16.663 9.487a1.908 1.908 0 01-2.3 0l-.081.08.08.093c.681.513 1.62.513 2.3 0l16.802-9.557-.138-.104z" fill="#000" opacity=".2"/><path d="M12.006 37.168a2.3 2.3 0 01-.506-1.621v.172c-.04.587.155 1.166.54 1.61l.081-.08-.115-.081zM36.8 24.495l-5.75 3.255.104.103 5.646-3.197A2.012 2.012 0 0038.019 23a2.139 2.139 0 01-1.219 1.495z" fill="#000" opacity=".12"/><path d="M14.386 8.763L36.8 21.505A2.14 2.14 0 0138.019 23a2.012 2.012 0 00-1.219-1.656L14.387 8.602c-1.599-.92-2.921-.161-2.921 1.679v.172c.034-1.84 1.322-2.598 2.92-1.69z" fill="#FFF" opacity=".25"/></g></svg>