<svg width="40" height="39" xmlns="http://www.w3.org/2000/svg"><g fill="none"><path d="M35.714 9.457h-.628L26.429 24.5l-7.986 1.635-2.557-7.707 5.178-8.971H4.286A4.286 4.286 0 000 13.742v20a4.286 4.286 0 004.286 4.286h31.428A4.286 4.286 0 0040 33.742v-20a4.286 4.286 0 00-4.286-4.285zM9.286 28.028a4.286 4.286 0 110-8.571 4.286 4.286 0 010 8.571z" fill="#D8DBE6"/><path d="M34.571 4.642a2.857 2.857 0 00-1.042-3.9l-.622-.357A2.857 2.857 0 0029 1.428l-.4.714 5.564 3.215.407-.715zM20.357 22.828l4.214-.864 8.172-14.15L27.17 4.6 19 18.75z" fill="#FE544B"/></g></svg>