<svg width="40" height="37" xmlns="http://www.w3.org/2000/svg"><g fill="none"><path d="M19.5 18.208V3.667a2 2 0 00-2-2c-4.917 0-9.625 2.125-12.917 5.791A17.41 17.41 0 00.333 21c.917 8.125 7.459 14.542 15.625 15.292.542.041 1.042.083 1.584.083 4.583 0 9-1.792 12.25-5.083a1.987 1.987 0 000-2.834L19.5 18.208z" fill="#D8DBE6"/><path d="M23.625 14.833h15.542a.63.63 0 00.625-.75 16.162 16.162 0 00-16-13.75h-.167a.658.658 0 00-.667.667v13.167c0 .375.292.666.667.666zm15.5 3.292H25.833c-.583 0-.875.708-.458 1.125l8.792 8.792c.25.25.666.25.916 0l.125-.125c2.5-2.459 4.042-5.625 4.542-9.042a.626.626 0 00-.625-.75z" fill="#FE544B"/></g></svg>