<svg width="40" height="40" xmlns="http://www.w3.org/2000/svg"><g fill="none"><path d="M12.84 39.024h-4.5A1.25 1.25 0 017.096 37.9l-.207-2.029a8.39 8.39 0 01-.97-.554l-1.91.849a1.251 1.251 0 01-1.587-.51l-2.25-3.838a1.25 1.25 0 01.356-1.653l1.686-1.194a8.19 8.19 0 010-1.073L.528 26.704a1.25 1.25 0 01-.356-1.653l2.25-3.838a1.251 1.251 0 011.587-.51l1.91.849c.31-.206.635-.391.97-.554l.207-2.03a1.25 1.25 0 011.244-1.124h4.5c.642 0 1.18.486 1.244 1.125l.206 2.029c.336.163.66.348.971.554l1.91-.849a1.25 1.25 0 011.587.51l2.25 3.838a1.25 1.25 0 01-.356 1.653l-1.686 1.194a8.19 8.19 0 010 1.073l1.686 1.194a1.25 1.25 0 01.356 1.653l-2.25 3.837a1.251 1.251 0 01-1.587.51l-1.91-.848c-.31.206-.635.391-.97.554l-.207 2.029a1.25 1.25 0 01-1.244 1.124z" fill="#D8DBE6"/><path d="M10.59 32.187a3.757 3.757 0 01-3.752-3.753 3.757 3.757 0 013.752-3.752 3.757 3.757 0 013.752 3.752 3.757 3.757 0 01-3.752 3.753zm0-5.003a1.25 1.25 0 100 2.5 1.25 1.25 0 000-2.5z" fill="#FE544B"/><path d="M30.684 21.18h-4.5a1.25 1.25 0 01-1.244-1.124l-.206-2.03a8.396 8.396 0 01-.971-.553l-1.91.848a1.25 1.25 0 01-1.587-.51l-2.25-3.837a1.25 1.25 0 01.357-1.654l1.686-1.193a8.188 8.188 0 010-1.074L18.373 8.86a1.25 1.25 0 01-.357-1.654l2.25-3.837a1.25 1.25 0 011.587-.51l1.91.848c.31-.206.635-.39.97-.554l.207-2.029A1.25 1.25 0 0126.184 0h4.5c.642 0 1.18.486 1.245 1.124l.206 2.03c.336.162.66.347.971.553l1.91-.848a1.25 1.25 0 011.587.51l2.25 3.837a1.25 1.25 0 01-.357 1.654l-1.686 1.193a8.188 8.188 0 010 1.074l1.686 1.193a1.25 1.25 0 01.357 1.654l-2.25 3.837a1.251 1.251 0 01-1.587.51l-1.91-.848c-.31.206-.635.39-.971.554l-.206 2.029a1.25 1.25 0 01-1.245 1.124z" fill="#D8DBE6"/><path d="M28.351 14.342A3.757 3.757 0 0124.6 10.59a3.757 3.757 0 013.752-3.752 3.757 3.757 0 013.752 3.752 3.757 3.757 0 01-3.752 3.752zm0-5.003a1.251 1.251 0 000 2.501 1.25 1.25 0 000-2.5z" fill="#FE544B"/><g fill="#FE544B"><path d="M14.383 6.741l-.933-2.32a16.204 16.204 0 012.787-.839l.501 2.451c-.803.164-1.595.403-2.355.708zM5.969 17.075l-2.463-.44A16.286 16.286 0 0110.914 5.71l1.326 2.12a13.78 13.78 0 00-6.27 9.244z"/><path d="M4.753 18.095c-.404 0-.794-.197-1.033-.546L1.385 14.13l2.066-1.41 1.777 2.602 2.997-1.147.894 2.336-3.919 1.5a1.247 1.247 0 01-.447.084z"/></g><g fill="#FE544B"><path d="M35.841 26.168l-1.954-2.472-2.91 1.354-1.055-2.268 3.805-1.77a1.25 1.25 0 011.509.357l2.568 3.248-1.963 1.551zm-13.1 9.283L22.247 33a13.69 13.69 0 002.324-.688l.92 2.326a16.05 16.05 0 01-2.75.814z"/><path d="M27.884 33.454l-1.29-2.143a13.754 13.754 0 006.465-9.378l2.463.437a16.255 16.255 0 01-7.638 11.084z"/></g></g></svg>