<svg width="40" height="40" xmlns="http://www.w3.org/2000/svg"><g fill="none"><path d="M37.744 0H1.654C.75 0 0 .749 0 1.655v36.129c0 .906.749 1.655 1.655 1.655h36.129c.906 0 1.655-.749 1.655-1.655V1.654C39.399.75 38.65 0 37.744 0z" fill="#D8DBE6"/><path d="M30.377 19.7h-9.85c-.473 0-.827.315-.827.827v9.85c0 .473.315.827.827.827h9.85c.473 0 .827-.315.827-.827v-9.85c0-.512-.354-.827-.827-.827zM9.022 14.775h21.355c.473 0 .827-.316.827-.828V9.022c0-.512-.315-.827-.827-.827H9.022c-.472 0-.827.315-.827.827v4.925c0 .512.355.828.827.828zm0 16.429h4.925c.473 0 .828-.315.828-.827v-9.85c0-.512-.316-.827-.828-.827H9.022c-.472 0-.827.315-.827.827v9.85c0 .473.355.827.827.827z" fill="#FE544B"/></g></svg>