<svg width="41" height="39" xmlns="http://www.w3.org/2000/svg"><g fill="none"><path d="M36.256 36.425a1.9 1.9 0 01-1.175 1.75 2.3 2.3 0 01-.7.125c-.464 0-.91-.172-1.252-.479l-.123-.121-7.307-7.78H2c-.185 0-.363-.024-.533-.071A1.9 1.9 0 01.014 28.18l-.004-.056A2.024 2.024 0 010 27.92V4a2 2 0 012-2h32.256a2 2 0 012 2v32.425z" fill="#D8DBE6"/><circle fill="#FE544B" cx="13.131" cy="16.875" r="2.5"/><circle fill="#FE544B" cx="23.131" cy="16.875" r="2.5"/><path d="M34.38 0a5.625 5.625 0 100 11.25 5.625 5.625 0 000-11.25zm0 7.5a1.875 1.875 0 111.876-1.875A1.9 1.9 0 0134.38 7.5z" fill="#FE544B"/></g></svg>