<svg width="43" height="40" xmlns="http://www.w3.org/2000/svg"><g fill="none"><path d="M20.127 16.767c-1.786 3.003-3.498 5.911-5.245 8.797-.449.741-.67 1.345-.312 2.287.99 2.602-.407 5.134-3.03 5.821-2.475.649-4.886-.978-5.377-3.627-.435-2.345 1.385-4.644 3.97-5.01.217-.031.438-.035.802-.062l3.933-6.595c-2.474-2.46-3.946-5.334-3.62-8.897.23-2.519 1.22-4.695 3.03-6.479 3.467-3.416 8.756-3.969 12.838-1.347 3.92 2.519 5.716 7.424 4.186 11.623l-3.594-.975c.48-2.334.125-4.43-1.45-6.226-1.04-1.186-2.374-1.808-3.892-2.036-3.043-.46-6.03 1.495-6.917 4.481-1.006 3.39.517 6.158 4.678 8.245z" fill="#FE544B"/><path d="M25.23 13.215l3.802 6.708c6.402-1.981 11.228 1.563 12.96 5.357 2.091 4.583.662 10.01-3.446 12.838-4.216 2.903-9.548 2.407-13.283-1.322l2.93-2.452c3.69 2.39 6.917 2.277 9.313-.553 2.042-2.414 1.998-6.013-.104-8.376-2.426-2.728-5.675-2.81-9.603-.193-1.63-2.89-3.287-5.758-4.865-8.67-.532-.98-1.12-1.55-2.318-1.758-2.003-.347-3.296-2.067-3.373-3.993-.077-1.905 1.046-3.628 2.8-4.299 1.738-.665 3.778-.128 4.947 1.35.955 1.207 1.259 2.566.756 4.055-.14.415-.32.816-.517 1.308z" fill="#D8DBE6"/><path d="M28.237 31.366h-7.706c-.739 3.038-2.334 5.49-5.083 7.05-2.137 1.213-4.44 1.624-6.892 1.228-4.514-.728-8.205-4.791-8.53-9.366-.367-5.184 3.195-9.79 7.944-10.826l.987 3.58C4.6 25.256 3.092 28.057 4.31 31.559c1.074 3.082 4.123 4.772 7.434 4.118 3.38-.667 5.085-3.477 4.877-7.986 3.205 0 6.413-.033 9.618.016 1.252.02 2.218-.11 3.161-1.213 1.553-1.816 4.41-1.652 6.082.063 1.709 1.752 1.627 4.572-.181 6.25-1.745 1.62-4.5 1.534-6.133-.211-.335-.36-.6-.787-.932-1.23z" fill="#D8DBE6"/></g></svg>