<svg width="40" height="40" xmlns="http://www.w3.org/2000/svg"><g fill="none"><path d="M40 14v22.923c0 1.7-1.28 3.077-2.857 3.077H2.857C1.28 40 0 38.622 0 36.923V14h40zM0 3.077C0 1.377 1.28 0 2.857 0h34.286C38.72 0 40 1.378 40 3.077V11H0V3.077z" fill="#D8DBE6"/><path d="M17.513 28.224l.692-1.003a.792.792 0 011.304 0l2.835 4.109a.792.792 0 01-.652 1.241H7.597a.954.954 0 01-.786-1.494l5.546-8.065a.954.954 0 011.572 0l3.584 5.212zM5.714 7.143a1.429 1.429 0 110-2.857 1.429 1.429 0 010 2.857zm4.286 0a1.429 1.429 0 110-2.857 1.429 1.429 0 010 2.857zm4.286 0a1.429 1.429 0 110-2.857 1.429 1.429 0 010 2.857zm9 12h8.571a1.429 1.429 0 010 2.857h-8.571a1.429 1.429 0 010-2.857zM29 24.857h2.857a1.429 1.429 0 010 2.857H29a1.429 1.429 0 010-2.857z" fill="#FE544B"/></g></svg>