<svg width="40" height="33" xmlns="http://www.w3.org/2000/svg"><g fill="none"><path d="M28.238 16.467c2.823 0 3.92-3.842 3.92-5.724 0-1.96-.627-5.254-3.92-5.254s-3.92 3.293-3.92 5.254c0 1.882 1.097 5.724 3.92 5.724z" fill="#FE544B"/><path d="M28.238 20.388c-1.02 0-1.882 0-2.745.078 1.804 1.882 4.703 4.914 4.703 11.582H40c0-5.254-3.293-11.66-11.762-11.66z" fill="#D8DBE6"/><path d="M14.114 18.82C3.921 18.82 0 25.774 0 32.047h28.229c0-6.273-3.92-13.229-14.115-13.229z" fill="#D8DBE6"/><path d="M14.114 14.114c3.45 0 4.705-4.94 4.705-7.37 0-2.51-.784-6.744-4.705-6.744-3.92 0-4.704 4.234-4.704 6.744 0 2.43 1.254 7.37 4.704 7.37z" fill="#FE544B"/></g></svg>