<svg width="40" height="36" xmlns="http://www.w3.org/2000/svg"><g fill="none"><path d="M19.853 31.903v.16c0 .06-.01.12-.02.18 0 .02-.01.04-.01.06 0 .02-.01.04-.01.06v.09c0 .01 0 .02-.01.03 0 .02-.01.04-.01.05-.05.25-.121.5-.221.74-.01.03-.03.07-.04.1-.02.04-.03.08-.05.12l-.03.06c-.02.03-.03.06-.05.09-.011.02-.021.05-.041.07-.01.03-.03.05-.04.08l-.09.15c-.05.08-.1.15-.151.23a3.257 3.257 0 01-.391.46c-.03.03-.07.07-.11.1l-.01.01c-.03.03-.07.06-.101.09-.04.03-.07.06-.11.09l-.12.09-.101.07c-.04.03-.08.05-.11.07-.03.02-.06.04-.1.06-.02.01-.05.03-.071.04-.06.04-.13.07-.19.1-.04.02-.07.03-.111.05-.05.02-.09.04-.14.06-.02.01-.05.02-.07.03-.04.02-.08.03-.121.05-.05.02-.1.04-.15.05l-.09.03a1.38 1.38 0 01-.191.05c-.03.01-.05.01-.08.02s-.071.02-.101.02c-.01 0-.03-.01-.04-.01h-.03c-.03.01-.05.02-.08.03-.01 0-.02 0-.03.01-.03.01-.05.02-.08.02a3.92 3.92 0 01-1.857-.19 4.39 4.39 0 01-.893-.45c-.04-.03-.08-.05-.12-.08-.04-.03-.09-.06-.13-.1-.061-.04-.111-.09-.171-.14-.05-.05-.1-.09-.16-.14-.061-.06-.121-.11-.171-.17-.02-.02-.04-.04-.05-.06a1.06 1.06 0 01-.1-.12c-.011-.01-.011-.01-.011-.02l-.01-.01-.01-.01v-.02c0-.01 0-.02-.01-.03 0 0-.01-.01-.01-.02s-.01-.01-.02-.02l-.02-.02-.02-.02-.02-.02c-.01 0-.01-.01-.01-.02-.03-.05-.07-.09-.1-.14l-.06-.09c-.031-.04-.051-.08-.081-.13-.03-.05-.05-.09-.07-.13a.076.076 0 01-.02-.04c-.04-.07-.08-.15-.11-.22a2.176 2.176 0 01-.111-.28c-.03-.09-.07-.19-.09-.29a4.44 4.44 0 01-.151-.9v-.17a.5.5 0 01.02-.12c.01-.14.02-.28.04-.42 0-.01.01-.03.01-.04.01-.04.01-.07.02-.11.01-.05.02-.1.03-.16l.03-.12c.01-.06.03-.11.05-.17l.03-.1c.02-.05.03-.09.05-.13a.37.37 0 01.051-.11c.02-.05.04-.11.07-.16.02-.03.03-.07.05-.1.05-.1.1-.19.161-.28.01-.03.03-.05.04-.08.03-.05.07-.11.11-.16.02-.03.04-.05.05-.08.07-.1.151-.2.241-.3.02-.03.05-.05.07-.08.03-.04.07-.07.101-.11a4.042 4.042 0 01.512-.44l.11-.08c.04-.03.07-.05.11-.07.04-.02.08-.05.11-.07h.01a.22.22 0 00.051-.03c.06-.03.13-.07.19-.1.04-.02.09-.04.131-.06.05-.02.09-.04.14-.06.1-.04.211-.08.322-.11.05-.02.11-.03.17-.04.04-.01.08-.02.13-.03.01 0 .03-.01.04-.01.03-.01.06-.02.101-.02h.04c.02 0 .04 0 .06-.01h.281c.1 0 .19-.03.291-.03.18 0 .351-.01.522.01.04.01.09.02.13.02h.05c.02.01.05.01.07.02.111.02.211.05.322.08.01 0 .02 0 .03.01.02.01.03.01.05.02.02.01.05.02.07.02h.01c.01 0 .01 0 .02.01h.02c.02.01.05.02.07.03l.01.01h.05c.021 0 .031.01.051.02.01.01.03.01.04.02.01 0 .02.01.02.01h.02l.06.03.06.03c.01 0 .01 0 .02.01.01 0 .01 0 .02.01s.01 0 .02.01c.01 0 .021.01.031.01.01 0 .03.01.04.02.01.01.03.01.04.02.01 0 .03.01.03.01h.03v-.01h.01c.02 0 .03.03.05.04v.01s0 .03.01.03l.01.03c.01 0 .02-.01.02-.01.02.01.04.01.061.02.01 0 .02 0 .03.01.01.01.02.01.03.01.281.16.532.36.763.59l.07.07c.03.03.06.06.08.09.06.07.12.13.17.2.111.14.211.29.302.45.09.16.17.32.24.48l.09.24c.02.04.03.08.041.13v.03l.03.1.03.12c.01.04.02.08.03.13.01.04.02.09.02.13 0 .01 0 .02.01.03.01.03.01.07.01.1v.03c.01.06.02.13.02.19v.01c0 .05.01.09.01.13.02.15.02.26.02.37zm16.604.55l-.03.17c-.02.09-.05.18-.08.28-.01.02-.01.04-.02.06v.01c-.03.08-.06.17-.09.25v.01c0 .01 0 .01-.01.02-.02.05-.03.11-.05.16l-.02.05c-.021.04-.031.08-.061.12-.03.05-.06.09-.1.14-.05.09-.11.18-.171.28l-.06.09c-.03.05-.07.1-.1.15-.04.05-.07.1-.11.14a.247.247 0 00-.051.06c-.05.06-.1.12-.16.18l-.09.09c-.031.03-.061.06-.101.09-.03.03-.06.05-.09.08s-.07.06-.1.08a.308.308 0 01-.071.05 4.26 4.26 0 01-1.766.75c-.04.01-.07.04-.11.04-.622 0-1.264.01-1.856-.21-.04-.01-.07-.03-.11-.04l-.211-.09a.47.47 0 01-.1-.05c-.03-.02-.07-.03-.101-.05-.03-.02-.06-.03-.09-.05-.03-.02-.07-.04-.1-.06-.03-.02-.06-.04-.101-.06-.03-.02-.05-.03-.08-.05l-.01-.01c-.06-.04-.12-.08-.18-.13-.02-.02-.051-.03-.071-.05-.12-.1-.24-.2-.351-.31-.05-.05-.09-.1-.14-.14-.02-.03-.05-.05-.071-.08-.02-.03-.05-.05-.07-.08a.5.5 0 00-.07-.08c-.02-.02-.03-.05-.05-.07l-.01-.01c-.04-.05-.08-.11-.121-.17l-.06-.09a.405.405 0 01-.05-.09c-.01-.02-.03-.04-.04-.06-.01-.01-.01-.02-.02-.03a.218.218 0 01-.03-.05c-.01-.01-.01-.02-.02-.04l-.091-.18a.467.467 0 00-.05-.1c-.03-.07-.06-.13-.08-.2-.03-.07-.05-.15-.08-.22a3.949 3.949 0 01-.201-1.05v-.13c0-.01.01-.02.01-.02v-.02c0-.04.02-.08.02-.11.1-1.81 1.394-3.45 3.23-3.79l.15-.03c.051-.01.101-.01.151-.02.341-.04.683-.04 1.014 0 .17.02.33.07.491.11.02.01.05.01.07.02.07.02.151-.01.221.09h.12c.05 0 .111.03.161.06.01.01.03.02.04.04.1.04.19.08.281.13.04.02.08.04.11.06.01 0 .02.01.03.02.02.01.05.03.07.04.01 0 .02.01.02.01h.022l.06.03s.01 0 .01.01c.01 0 .02.01.02.01.01 0 .01.01.02.01 0 0 .01 0 .01.01l.01.01c.02.01.03.02.04.03h.02c.01 0 .01.01.02.01s.01.01.02.01h.01s.01 0 .01.01c.02.01.041.03.051.04v.01l.01.02.01-.01c.01 0 .01-.01.02-.01.02.01.04.02.06.02v.06l.01-.02c0 .01-.01.02 0 .02 0 0-.01 0-.01.01 0 0 .02.01.03.01l.02.01c.01.01.03.02.04.03.01.01.02.01.03.02.01 0 .01.01.02.01h.01l.01.01c.071.06.131.12.202.19l.01.01.1.1c.09.1.17.2.25.31.01.01.02.03.03.04.01.01.02.03.03.04a.863.863 0 01.111.18c.02.03.03.05.05.08v.01c.01.01.02.03.02.04.02.03.04.07.06.1.01.01.01.03.02.04l.03.06c.01.02.02.04.02.05.021.03.031.06.041.09.06.13.11.26.15.4v.01c.01.02.01.04.02.06v.02c.01.02.01.03.01.05v.04c0 .01.01.02.01.04.01.03.02.06.02.1.01.03.01.06.02.08.01.03.01.05.02.08 0 .03.01.06.02.09 0 .03.011.05.011.08v.05c.01.05.01.1.01.14.01.06.01.12.01.18.08.36.06.66.01.96z" fill="#FE544B"/><path d="M39.995 8.63c0 .02-.01.05-.01.07a.812.812 0 01-.035.14c0 .01-.026.02-.026.04a.61.61 0 01-.062.24c-.168.491-.31.971-.478 1.451-1.397 4.07-2.786 8.14-4.174 12.211-.089.26-.23.47-.425.6-.017.01-.026.02-.044.02-.026.02-.062.03-.097.05a.696.696 0 01-.292.05H14.267c-.893.22-1.76-.5-2.034-1.44-.239-.81-.469-1.62-.708-2.43L8.457 9.121C7.96 7.41 7.457 5.7 6.962 4H1.77C.78 4 .046 3.08.002 2-.043.92.842 0 1.77 0h6.474c.805 0 1.46.61 1.707 1.45.239.81.46 1.61.699 2.42.186.62.354 1.24.53 1.86.177.62.38 1.24.567 1.86h27.195a.84.84 0 01.416.01c.08.02.15.06.22.11.098.06.169.14.23.24v.01c.142.2.213.44.187.67z" fill="#D8DBE6"/><path d="M37.93 2.122a1.364 1.364 0 01.131 2.72l-.13.007H15.47a1.364 1.364 0 01-.131-2.721l.131-.006h22.46z" fill="#FE544B"/></g></svg>