<svg width="192" height="36" xmlns="http://www.w3.org/2000/svg"><g fill="none" fill-rule="evenodd"><path d="M33.816 23.272l-7.531 7.532-4.52-4.52 12.751-12.75a7.457 7.457 0 01-.7 9.738zM12.728 2.184A7.46 7.46 0 0121.546.895L4.443 18l17.104 17.104a7.46 7.46 0 01-8.82-1.288L2.185 23.272a7.456 7.456 0 010-10.544L12.728 2.184zm13.557 3.012l3.765 3.766-12.803 12.804-3.767-3.767L26.285 5.196z" fill="#FE544B"/><path d="M57.52 22.864v-2.176h-5.232v-2.416h4.8v-2.176h-4.8V13.84h5.232v-2.176H50v11.2h7.52zm3.888 4V21.68c.693.917 1.621 1.376 2.784 1.376 1.152 0 2.11-.43 2.872-1.288.763-.859 1.144-1.96 1.144-3.304 0-1.344-.384-2.445-1.152-3.304-.768-.859-1.723-1.288-2.864-1.288-1.173 0-2.101.475-2.784 1.424v-1.232H59.12v12.8h2.288zm2.256-5.984c-.65 0-1.19-.224-1.616-.672-.427-.448-.64-1.03-.64-1.744 0-.715.213-1.296.64-1.744.427-.448.965-.672 1.616-.672.65 0 1.184.224 1.6.672.416.448.624 1.03.624 1.744 0 .715-.21 1.296-.632 1.744-.421.448-.952.672-1.592.672zm7.296-8.176c.416 0 .757-.128 1.024-.384s.4-.581.4-.976-.133-.717-.4-.968c-.267-.25-.608-.376-1.024-.376-.405 0-.744.128-1.016.384a1.264 1.264 0 00-.408.96c0 .395.136.72.408.976.272.256.61.384 1.016.384zm1.136 10.16v-8.8h-2.288v8.8h2.288zm6.208.192c1.11 0 2.077-.312 2.904-.936.827-.624 1.325-1.496 1.496-2.616h-2.352c-.128.47-.379.827-.752 1.072a2.306 2.306 0 01-1.296.368c-.672 0-1.219-.23-1.64-.688-.421-.459-.627-1.056-.616-1.792-.01-.736.192-1.333.608-1.792.416-.459.97-.688 1.664-.688.49 0 .92.123 1.288.368s.616.597.744 1.056h2.352c-.16-1.088-.653-1.95-1.48-2.584-.827-.635-1.795-.952-2.904-.952-1.323 0-2.419.437-3.288 1.312-.87.875-1.304 1.968-1.304 3.28 0 1.312.435 2.405 1.304 3.28.87.875 1.96 1.312 3.272 1.312zm13.248-.192v-4.496h4.8v-2.176h-4.8V13.84h5.232v-2.176h-7.52v11.2h2.288zm11.12.192c1.301 0 2.392-.435 3.272-1.304.88-.87 1.32-1.965 1.32-3.288 0-1.312-.445-2.405-1.336-3.28-.89-.875-1.976-1.312-3.256-1.312-1.28 0-2.363.437-3.248 1.312-.885.875-1.328 1.968-1.328 3.28 0 1.312.44 2.405 1.32 3.28.88.875 1.965 1.312 3.256 1.312zm0-2.176c-.65 0-1.192-.224-1.624-.672-.432-.448-.648-1.03-.648-1.744 0-.715.216-1.296.648-1.744.432-.448.973-.672 1.624-.672.65 0 1.19.224 1.616.672.437.448.656 1.03.656 1.744 0 .715-.216 1.296-.648 1.744-.432.448-.973.672-1.624.672zm8.48 1.984v-3.92c0-.97.248-1.667.744-2.088.496-.421 1.15-.632 1.96-.632.139 0 .325.01.56.032v-2.352a4.693 4.693 0 00-.512-.032c-1.29 0-2.208.576-2.752 1.728v-1.536h-2.288v8.8h2.288zm6.816 0l-.016-4.624c0-.704.157-1.245.472-1.624.315-.379.77-.568 1.368-.568.533 0 .92.147 1.16.44.24.293.36.728.36 1.304v5.072h2.288V18.24c0-.704.155-1.245.464-1.624.31-.379.763-.568 1.36-.568.533 0 .92.147 1.16.44.24.293.36.728.36 1.304v5.072h2.288v-5.568c0-1.067-.272-1.904-.816-2.512-.544-.608-1.285-.912-2.224-.912-1.28 0-2.261.555-2.944 1.664-.501-1.11-1.392-1.664-2.672-1.664-1.099 0-1.968.453-2.608 1.36v-1.168h-2.304v8.8h2.304zm23.056 0c1.163 0 2.083-.285 2.76-.856.677-.57 1.016-1.363 1.016-2.376 0-.683-.15-1.272-.448-1.768-.299-.496-.741-.84-1.328-1.032.928-.47 1.392-1.221 1.392-2.256 0-.939-.307-1.659-.92-2.16-.613-.501-1.448-.752-2.504-.752h-4.912v11.2h4.944zm-.272-6.768h-2.384V13.84h2.32c.49 0 .85.085 1.08.256.23.17.344.459.344.864 0 .757-.453 1.136-1.36 1.136zm.224 4.592h-2.608v-2.496h2.592c.565 0 .96.101 1.184.304.224.203.336.517.336.944 0 .405-.112.715-.336.928-.224.213-.613.32-1.168.32zm8.4 2.368c1.141 0 2.048-.47 2.72-1.408v1.216h2.288v-8.8h-2.288v4.624c0 .715-.168 1.259-.504 1.632-.336.373-.819.56-1.448.56-.576 0-.99-.15-1.24-.448-.25-.299-.376-.747-.376-1.344v-5.024h-2.288v5.52c0 1.067.28 1.912.84 2.536.56.624 1.325.936 2.296.936zm7.968-10.352c.416 0 .757-.128 1.024-.384s.4-.581.4-.976-.133-.717-.4-.968c-.267-.25-.608-.376-1.024-.376-.405 0-.744.128-1.016.384a1.264 1.264 0 00-.408.96c0 .395.136.72.408.976.272.256.61.384 1.016.384zm1.136 10.16v-8.8h-2.288v8.8h2.288zm4.144 0v-12.32h-2.288v12.32h2.288zm5.76.192c1.173 0 2.096-.459 2.768-1.376v1.184h2.288v-12.32h-2.288v4.752c-.683-.95-1.61-1.424-2.784-1.424-1.141 0-2.093.43-2.856 1.288-.763.859-1.144 1.96-1.144 3.304 0 1.344.381 2.445 1.144 3.304.763.859 1.72 1.288 2.872 1.288zm.512-2.176c-.64 0-1.17-.224-1.592-.672-.421-.448-.632-1.03-.632-1.744 0-.715.208-1.296.624-1.744.416-.448.95-.672 1.6-.672.65 0 1.19.224 1.616.672.427.448.64 1.03.64 1.744 0 .715-.213 1.296-.64 1.744-.427.448-.965.672-1.616.672zm10.8 2.176c1.003 0 1.893-.25 2.672-.752.779-.501 1.323-1.248 1.632-2.24h-2.368a1.7 1.7 0 01-.752.808 2.411 2.411 0 01-1.2.296c-.619 0-1.136-.181-1.552-.544-.416-.363-.661-.885-.736-1.568h6.752c.117-1.472-.243-2.704-1.08-3.696-.837-.992-1.976-1.488-3.416-1.488-1.333 0-2.432.437-3.296 1.312-.864.875-1.296 1.973-1.296 3.296 0 1.323.432 2.416 1.296 3.28.864.864 1.979 1.296 3.344 1.296zm2.016-5.68h-4.208c.15-.49.405-.883.768-1.176.363-.293.816-.44 1.36-.44.533 0 .981.147 1.344.44.363.293.608.685.736 1.176zm6.272 5.488v-3.92c0-.97.248-1.667.744-2.088.496-.421 1.15-.632 1.96-.632.139 0 .325.01.56.032v-2.352a4.693 4.693 0 00-.512-.032c-1.29 0-2.208.576-2.752 1.728v-1.536h-2.288v8.8h2.288z" fill="#24273D" fill-rule="nonzero"/></g></svg>