<svg xmlns="http://www.w3.org/2000/svg" width="316" height="316"><defs><filter id="a" width="347.1%" height="347.1%" x="-123.6%" y="-123.6%" filterUnits="objectBoundingBox"><feOffset dy="40" in="SourceAlpha" result="shadowOffsetOuter1"/><feGaussianBlur in="shadowOffsetOuter1" result="shadowBlurOuter1" stdDeviation="25"/><feColorMatrix in="shadowBlurOuter1" result="shadowMatrixOuter1" values="0 0 0 0 0 0 0 0 0 0 0 0 0 0 0 0 0 0 0.100005463 0"/><feMerge><feMergeNode in="shadowMatrixOuter1"/><feMergeNode in="SourceGraphic"/></feMerge></filter></defs><g filter="url(#a)" transform="translate(88 100)" fill="none" fill-rule="evenodd"><g transform="translate(40 28)"><rect width="60" height="60" fill="#0277BD" rx="11.429"/><path fill="#ECEFF1" fill-rule="nonzero" d="M22.143 8.571c2.07 0 3.75 1.68 3.75 3.75v33.75a3.75 3.75 0 01-3.75 3.75h-11.25a3.75 3.75 0 01-3.75-3.75v-33.75a3.75 3.75 0 013.75-3.75h11.25zm26.25 0c2.07 0 3.75 1.68 3.75 3.75v18.75a3.75 3.75 0 01-3.75 3.75h-11.25a3.75 3.75 0 01-3.75-3.75v-18.75a3.75 3.75 0 013.75-3.75h11.25z"/></g></g></svg>